<mxfile host="app.diagrams.net" agent="Mozilla/5.0 (Macintosh; Intel Mac OS X 10_15_7) AppleWebKit/537.36 (KHTML, like Gecko) Chrome/128.0.0.0 Safari/537.36   " version="24.7.14">
  <diagram id="C5RBs43oDa-KdzZeNtuy" name="Page-1">
    <mxGraphModel dx="1468" dy="1046" grid="1" gridSize="12" guides="1" tooltips="1" connect="1" arrows="1" fold="1" page="1" pageScale="1" pageWidth="1654" pageHeight="2336" background="#050505" math="0" shadow="0">
      <root>
        <mxCell id="WIyWlLk6GJQsqaUBKTNV-0" />
        <mxCell id="WIyWlLk6GJQsqaUBKTNV-1" parent="WIyWlLk6GJQsqaUBKTNV-0" />
        <mxCell id="8_FjwSeSAaLQE-lY-bs4-1" style="edgeStyle=orthogonalEdgeStyle;rounded=0;orthogonalLoop=1;jettySize=auto;html=1;exitX=0.5;exitY=1;exitDx=0;exitDy=0;entryX=0.5;entryY=0;entryDx=0;entryDy=0;strokeColor=#EDEDED;" edge="1" parent="WIyWlLk6GJQsqaUBKTNV-1" source="WIyWlLk6GJQsqaUBKTNV-3" target="8_FjwSeSAaLQE-lY-bs4-0">
          <mxGeometry relative="1" as="geometry" />
        </mxCell>
        <mxCell id="WIyWlLk6GJQsqaUBKTNV-3" value="START" style="rounded=1;whiteSpace=wrap;html=1;fontSize=12;glass=0;strokeWidth=1;shadow=0;" parent="WIyWlLk6GJQsqaUBKTNV-1" vertex="1">
          <mxGeometry x="160" y="80" width="120" height="40" as="geometry" />
        </mxCell>
        <mxCell id="8_FjwSeSAaLQE-lY-bs4-3" style="edgeStyle=orthogonalEdgeStyle;rounded=0;orthogonalLoop=1;jettySize=auto;html=1;exitX=0.5;exitY=1;exitDx=0;exitDy=0;entryX=0.5;entryY=0;entryDx=0;entryDy=0;strokeColor=#F0F0F0;" edge="1" parent="WIyWlLk6GJQsqaUBKTNV-1" source="8_FjwSeSAaLQE-lY-bs4-0" target="8_FjwSeSAaLQE-lY-bs4-2">
          <mxGeometry relative="1" as="geometry" />
        </mxCell>
        <mxCell id="8_FjwSeSAaLQE-lY-bs4-20" style="edgeStyle=orthogonalEdgeStyle;rounded=0;orthogonalLoop=1;jettySize=auto;html=1;exitX=1;exitY=0.5;exitDx=0;exitDy=0;entryX=0;entryY=0.5;entryDx=0;entryDy=0;" edge="1" parent="WIyWlLk6GJQsqaUBKTNV-1" source="8_FjwSeSAaLQE-lY-bs4-4" target="8_FjwSeSAaLQE-lY-bs4-19">
          <mxGeometry relative="1" as="geometry" />
        </mxCell>
        <mxCell id="8_FjwSeSAaLQE-lY-bs4-22" style="edgeStyle=orthogonalEdgeStyle;rounded=0;orthogonalLoop=1;jettySize=auto;html=1;exitX=1;exitY=0.5;exitDx=0;exitDy=0;entryX=0;entryY=0.5;entryDx=0;entryDy=0;strokeColor=#F7F7F7;" edge="1" parent="WIyWlLk6GJQsqaUBKTNV-1" source="8_FjwSeSAaLQE-lY-bs4-4" target="8_FjwSeSAaLQE-lY-bs4-19">
          <mxGeometry relative="1" as="geometry" />
        </mxCell>
        <mxCell id="8_FjwSeSAaLQE-lY-bs4-4" value="" style="rounded=0;whiteSpace=wrap;html=1;fillColor=#BAD6FF;strokeColor=#000000;" vertex="1" parent="WIyWlLk6GJQsqaUBKTNV-1">
          <mxGeometry x="100" y="320" width="250" height="450" as="geometry" />
        </mxCell>
        <mxCell id="8_FjwSeSAaLQE-lY-bs4-0" value="Initialize all actuators and sensors" style="rounded=0;whiteSpace=wrap;html=1;" vertex="1" parent="WIyWlLk6GJQsqaUBKTNV-1">
          <mxGeometry x="160" y="160" width="120" height="60" as="geometry" />
        </mxCell>
        <mxCell id="8_FjwSeSAaLQE-lY-bs4-6" style="edgeStyle=orthogonalEdgeStyle;rounded=0;orthogonalLoop=1;jettySize=auto;html=1;exitX=0.5;exitY=1;exitDx=0;exitDy=0;entryX=0.5;entryY=0;entryDx=0;entryDy=0;strokeColor=#FFFFFF;" edge="1" parent="WIyWlLk6GJQsqaUBKTNV-1" source="8_FjwSeSAaLQE-lY-bs4-2" target="8_FjwSeSAaLQE-lY-bs4-5">
          <mxGeometry relative="1" as="geometry" />
        </mxCell>
        <mxCell id="8_FjwSeSAaLQE-lY-bs4-2" value="TeleOp Starts" style="rounded=0;whiteSpace=wrap;html=1;" vertex="1" parent="WIyWlLk6GJQsqaUBKTNV-1">
          <mxGeometry x="160" y="240" width="120" height="60" as="geometry" />
        </mxCell>
        <mxCell id="8_FjwSeSAaLQE-lY-bs4-8" style="edgeStyle=orthogonalEdgeStyle;rounded=0;orthogonalLoop=1;jettySize=auto;html=1;exitX=0.5;exitY=1;exitDx=0;exitDy=0;entryX=0.5;entryY=0;entryDx=0;entryDy=0;" edge="1" parent="WIyWlLk6GJQsqaUBKTNV-1" source="8_FjwSeSAaLQE-lY-bs4-5" target="8_FjwSeSAaLQE-lY-bs4-7">
          <mxGeometry relative="1" as="geometry" />
        </mxCell>
        <mxCell id="8_FjwSeSAaLQE-lY-bs4-5" value="Drive = left Y axis&lt;div&gt;TUrn = Right X axis&lt;/div&gt;" style="shape=parallelogram;perimeter=parallelogramPerimeter;whiteSpace=wrap;html=1;fixedSize=1;" vertex="1" parent="WIyWlLk6GJQsqaUBKTNV-1">
          <mxGeometry x="145" y="340" width="150" height="60" as="geometry" />
        </mxCell>
        <mxCell id="8_FjwSeSAaLQE-lY-bs4-10" style="edgeStyle=orthogonalEdgeStyle;rounded=0;orthogonalLoop=1;jettySize=auto;html=1;exitX=0.5;exitY=1;exitDx=0;exitDy=0;entryX=0.5;entryY=0;entryDx=0;entryDy=0;" edge="1" parent="WIyWlLk6GJQsqaUBKTNV-1" source="8_FjwSeSAaLQE-lY-bs4-7" target="8_FjwSeSAaLQE-lY-bs4-9">
          <mxGeometry relative="1" as="geometry" />
        </mxCell>
        <mxCell id="8_FjwSeSAaLQE-lY-bs4-7" value="Set left motor power 50%&lt;div&gt;Set right motor power 50%&lt;/div&gt;" style="rounded=0;whiteSpace=wrap;html=1;" vertex="1" parent="WIyWlLk6GJQsqaUBKTNV-1">
          <mxGeometry x="145" y="420" width="150" height="60" as="geometry" />
        </mxCell>
        <mxCell id="8_FjwSeSAaLQE-lY-bs4-13" style="edgeStyle=orthogonalEdgeStyle;rounded=0;orthogonalLoop=1;jettySize=auto;html=1;exitX=0.5;exitY=1;exitDx=0;exitDy=0;entryX=0.5;entryY=0;entryDx=0;entryDy=0;" edge="1" parent="WIyWlLk6GJQsqaUBKTNV-1" source="8_FjwSeSAaLQE-lY-bs4-9" target="8_FjwSeSAaLQE-lY-bs4-12">
          <mxGeometry relative="1" as="geometry" />
        </mxCell>
        <mxCell id="8_FjwSeSAaLQE-lY-bs4-17" value="YES" style="edgeLabel;html=1;align=center;verticalAlign=middle;resizable=0;points=[];" vertex="1" connectable="0" parent="8_FjwSeSAaLQE-lY-bs4-13">
          <mxGeometry x="-0.1588" relative="1" as="geometry">
            <mxPoint x="20" as="offset" />
          </mxGeometry>
        </mxCell>
        <mxCell id="8_FjwSeSAaLQE-lY-bs4-14" style="edgeStyle=orthogonalEdgeStyle;rounded=0;orthogonalLoop=1;jettySize=auto;html=1;exitX=1;exitY=0.5;exitDx=0;exitDy=0;entryX=1;entryY=0.5;entryDx=0;entryDy=0;" edge="1" parent="WIyWlLk6GJQsqaUBKTNV-1" source="8_FjwSeSAaLQE-lY-bs4-9" target="8_FjwSeSAaLQE-lY-bs4-7">
          <mxGeometry relative="1" as="geometry" />
        </mxCell>
        <mxCell id="8_FjwSeSAaLQE-lY-bs4-16" value="NO" style="edgeLabel;html=1;align=center;verticalAlign=middle;resizable=0;points=[];" vertex="1" connectable="0" parent="8_FjwSeSAaLQE-lY-bs4-14">
          <mxGeometry x="-0.0493" relative="1" as="geometry">
            <mxPoint x="15" as="offset" />
          </mxGeometry>
        </mxCell>
        <mxCell id="8_FjwSeSAaLQE-lY-bs4-9" value="If P1 right trigger&lt;div&gt;==&lt;/div&gt;&lt;div&gt;true&lt;/div&gt;" style="shape=hexagon;perimeter=hexagonPerimeter2;whiteSpace=wrap;html=1;fixedSize=1;" vertex="1" parent="WIyWlLk6GJQsqaUBKTNV-1">
          <mxGeometry x="145" y="500" width="150" height="60" as="geometry" />
        </mxCell>
        <mxCell id="8_FjwSeSAaLQE-lY-bs4-15" style="edgeStyle=orthogonalEdgeStyle;rounded=0;orthogonalLoop=1;jettySize=auto;html=1;exitX=0;exitY=0.5;exitDx=0;exitDy=0;entryX=0;entryY=0.5;entryDx=0;entryDy=0;" edge="1" parent="WIyWlLk6GJQsqaUBKTNV-1" source="8_FjwSeSAaLQE-lY-bs4-12" target="8_FjwSeSAaLQE-lY-bs4-9">
          <mxGeometry relative="1" as="geometry" />
        </mxCell>
        <mxCell id="8_FjwSeSAaLQE-lY-bs4-12" value="Set left motor power 100%&lt;div&gt;Set right motor power 100%&lt;/div&gt;" style="rounded=0;whiteSpace=wrap;html=1;" vertex="1" parent="WIyWlLk6GJQsqaUBKTNV-1">
          <mxGeometry x="137.5" y="590" width="165" height="60" as="geometry" />
        </mxCell>
        <mxCell id="8_FjwSeSAaLQE-lY-bs4-18" value="&lt;font style=&quot;font-size: 20px;&quot;&gt;DRIVETRAIN&lt;br&gt;SUBSYSTEM&lt;/font&gt;" style="rounded=0;whiteSpace=wrap;html=1;fillColor=#BAD6FF;strokeColor=none;" vertex="1" parent="WIyWlLk6GJQsqaUBKTNV-1">
          <mxGeometry x="165" y="680" width="120" height="60" as="geometry" />
        </mxCell>
        <mxCell id="8_FjwSeSAaLQE-lY-bs4-47" style="edgeStyle=orthogonalEdgeStyle;rounded=0;orthogonalLoop=1;jettySize=auto;html=1;exitX=1;exitY=0.5;exitDx=0;exitDy=0;entryX=0;entryY=0.5;entryDx=0;entryDy=0;strokeColor=#F0F0F0;" edge="1" parent="WIyWlLk6GJQsqaUBKTNV-1" source="8_FjwSeSAaLQE-lY-bs4-19" target="8_FjwSeSAaLQE-lY-bs4-44">
          <mxGeometry relative="1" as="geometry" />
        </mxCell>
        <mxCell id="8_FjwSeSAaLQE-lY-bs4-19" value="" style="rounded=0;whiteSpace=wrap;html=1;fillColor=#f8cecc;strokeColor=#b85450;" vertex="1" parent="WIyWlLk6GJQsqaUBKTNV-1">
          <mxGeometry x="384" y="327.5" width="432" height="435" as="geometry" />
        </mxCell>
        <mxCell id="8_FjwSeSAaLQE-lY-bs4-23" value="&lt;font style=&quot;font-size: 20px;&quot;&gt;INTAKE&lt;br&gt;SUBSYSTEM&lt;/font&gt;" style="rounded=0;whiteSpace=wrap;html=1;fillColor=#f8cecc;strokeColor=none;" vertex="1" parent="WIyWlLk6GJQsqaUBKTNV-1">
          <mxGeometry x="540" y="340" width="120" height="60" as="geometry" />
        </mxCell>
        <mxCell id="8_FjwSeSAaLQE-lY-bs4-28" style="edgeStyle=orthogonalEdgeStyle;rounded=0;orthogonalLoop=1;jettySize=auto;html=1;exitX=0.5;exitY=1;exitDx=0;exitDy=0;entryX=0.5;entryY=0;entryDx=0;entryDy=0;" edge="1" parent="WIyWlLk6GJQsqaUBKTNV-1" source="8_FjwSeSAaLQE-lY-bs4-25" target="8_FjwSeSAaLQE-lY-bs4-26">
          <mxGeometry relative="1" as="geometry" />
        </mxCell>
        <mxCell id="8_FjwSeSAaLQE-lY-bs4-39" value="NO" style="edgeLabel;html=1;align=center;verticalAlign=middle;resizable=0;points=[];" vertex="1" connectable="0" parent="8_FjwSeSAaLQE-lY-bs4-28">
          <mxGeometry x="-0.2237" y="1" relative="1" as="geometry">
            <mxPoint x="20" as="offset" />
          </mxGeometry>
        </mxCell>
        <mxCell id="8_FjwSeSAaLQE-lY-bs4-29" style="edgeStyle=orthogonalEdgeStyle;rounded=0;orthogonalLoop=1;jettySize=auto;html=1;exitX=0;exitY=0.5;exitDx=0;exitDy=0;entryX=0;entryY=0.5;entryDx=0;entryDy=0;" edge="1" parent="WIyWlLk6GJQsqaUBKTNV-1" source="8_FjwSeSAaLQE-lY-bs4-25" target="8_FjwSeSAaLQE-lY-bs4-27">
          <mxGeometry relative="1" as="geometry" />
        </mxCell>
        <mxCell id="8_FjwSeSAaLQE-lY-bs4-42" value="NO" style="edgeLabel;html=1;align=center;verticalAlign=middle;resizable=0;points=[];" vertex="1" connectable="0" parent="8_FjwSeSAaLQE-lY-bs4-29">
          <mxGeometry x="-0.8035" relative="1" as="geometry">
            <mxPoint x="-16" as="offset" />
          </mxGeometry>
        </mxCell>
        <mxCell id="8_FjwSeSAaLQE-lY-bs4-43" value="NO" style="edgeLabel;html=1;align=center;verticalAlign=middle;resizable=0;points=[];" vertex="1" connectable="0" parent="8_FjwSeSAaLQE-lY-bs4-29">
          <mxGeometry x="-0.0163" y="1" relative="1" as="geometry">
            <mxPoint x="-17" as="offset" />
          </mxGeometry>
        </mxCell>
        <mxCell id="8_FjwSeSAaLQE-lY-bs4-35" style="edgeStyle=orthogonalEdgeStyle;rounded=0;orthogonalLoop=1;jettySize=auto;html=1;exitX=1;exitY=0.5;exitDx=0;exitDy=0;entryX=0;entryY=0.5;entryDx=0;entryDy=0;" edge="1" parent="WIyWlLk6GJQsqaUBKTNV-1" source="8_FjwSeSAaLQE-lY-bs4-25" target="8_FjwSeSAaLQE-lY-bs4-33">
          <mxGeometry relative="1" as="geometry" />
        </mxCell>
        <mxCell id="8_FjwSeSAaLQE-lY-bs4-40" value="YES" style="edgeLabel;html=1;align=center;verticalAlign=middle;resizable=0;points=[];" vertex="1" connectable="0" parent="8_FjwSeSAaLQE-lY-bs4-35">
          <mxGeometry x="-0.2937" relative="1" as="geometry">
            <mxPoint y="-12" as="offset" />
          </mxGeometry>
        </mxCell>
        <mxCell id="8_FjwSeSAaLQE-lY-bs4-25" value="If P1 right bumper&lt;div&gt;==&lt;/div&gt;&lt;div&gt;true&lt;/div&gt;" style="shape=hexagon;perimeter=hexagonPerimeter2;whiteSpace=wrap;html=1;fixedSize=1;" vertex="1" parent="WIyWlLk6GJQsqaUBKTNV-1">
          <mxGeometry x="456" y="432" width="150" height="60" as="geometry" />
        </mxCell>
        <mxCell id="8_FjwSeSAaLQE-lY-bs4-32" style="edgeStyle=orthogonalEdgeStyle;rounded=0;orthogonalLoop=1;jettySize=auto;html=1;exitX=0;exitY=0.5;exitDx=0;exitDy=0;" edge="1" parent="WIyWlLk6GJQsqaUBKTNV-1" source="8_FjwSeSAaLQE-lY-bs4-26">
          <mxGeometry relative="1" as="geometry">
            <mxPoint x="432" y="559.6666666666667" as="targetPoint" />
          </mxGeometry>
        </mxCell>
        <mxCell id="8_FjwSeSAaLQE-lY-bs4-36" style="edgeStyle=orthogonalEdgeStyle;rounded=0;orthogonalLoop=1;jettySize=auto;html=1;exitX=1;exitY=0.5;exitDx=0;exitDy=0;entryX=0;entryY=0.5;entryDx=0;entryDy=0;" edge="1" parent="WIyWlLk6GJQsqaUBKTNV-1" source="8_FjwSeSAaLQE-lY-bs4-26" target="8_FjwSeSAaLQE-lY-bs4-34">
          <mxGeometry relative="1" as="geometry" />
        </mxCell>
        <mxCell id="8_FjwSeSAaLQE-lY-bs4-41" value="YES" style="edgeLabel;html=1;align=center;verticalAlign=middle;resizable=0;points=[];" vertex="1" connectable="0" parent="8_FjwSeSAaLQE-lY-bs4-36">
          <mxGeometry x="-0.1349" y="-2" relative="1" as="geometry">
            <mxPoint y="-17" as="offset" />
          </mxGeometry>
        </mxCell>
        <mxCell id="8_FjwSeSAaLQE-lY-bs4-26" value="If P1 left bumper&lt;div&gt;==&lt;/div&gt;&lt;div&gt;true&lt;/div&gt;" style="shape=hexagon;perimeter=hexagonPerimeter2;whiteSpace=wrap;html=1;fixedSize=1;" vertex="1" parent="WIyWlLk6GJQsqaUBKTNV-1">
          <mxGeometry x="456" y="530" width="150" height="60" as="geometry" />
        </mxCell>
        <mxCell id="8_FjwSeSAaLQE-lY-bs4-27" value="Set intake power&amp;nbsp;&lt;div&gt;0%&lt;/div&gt;" style="rounded=0;whiteSpace=wrap;html=1;" vertex="1" parent="WIyWlLk6GJQsqaUBKTNV-1">
          <mxGeometry x="465" y="624" width="132" height="48" as="geometry" />
        </mxCell>
        <mxCell id="8_FjwSeSAaLQE-lY-bs4-37" style="edgeStyle=orthogonalEdgeStyle;rounded=0;orthogonalLoop=1;jettySize=auto;html=1;exitX=0.5;exitY=1;exitDx=0;exitDy=0;entryX=0.5;entryY=0;entryDx=0;entryDy=0;" edge="1" parent="WIyWlLk6GJQsqaUBKTNV-1" source="8_FjwSeSAaLQE-lY-bs4-33" target="8_FjwSeSAaLQE-lY-bs4-34">
          <mxGeometry relative="1" as="geometry" />
        </mxCell>
        <mxCell id="8_FjwSeSAaLQE-lY-bs4-33" value="Set intake power&amp;nbsp;&lt;div&gt;100%&lt;/div&gt;" style="rounded=0;whiteSpace=wrap;html=1;" vertex="1" parent="WIyWlLk6GJQsqaUBKTNV-1">
          <mxGeometry x="648" y="438" width="132" height="48" as="geometry" />
        </mxCell>
        <mxCell id="8_FjwSeSAaLQE-lY-bs4-38" style="edgeStyle=orthogonalEdgeStyle;rounded=0;orthogonalLoop=1;jettySize=auto;html=1;exitX=0.5;exitY=1;exitDx=0;exitDy=0;entryX=1;entryY=0.5;entryDx=0;entryDy=0;" edge="1" parent="WIyWlLk6GJQsqaUBKTNV-1" source="8_FjwSeSAaLQE-lY-bs4-34" target="8_FjwSeSAaLQE-lY-bs4-27">
          <mxGeometry relative="1" as="geometry" />
        </mxCell>
        <mxCell id="8_FjwSeSAaLQE-lY-bs4-34" value="Set intake power&amp;nbsp;&lt;div&gt;-100%&lt;/div&gt;" style="rounded=0;whiteSpace=wrap;html=1;" vertex="1" parent="WIyWlLk6GJQsqaUBKTNV-1">
          <mxGeometry x="648" y="536" width="132" height="48" as="geometry" />
        </mxCell>
        <mxCell id="8_FjwSeSAaLQE-lY-bs4-44" value="" style="rounded=0;whiteSpace=wrap;html=1;fillColor=#d5e8d4;strokeColor=#82b366;" vertex="1" parent="WIyWlLk6GJQsqaUBKTNV-1">
          <mxGeometry x="840" y="384" width="468" height="324" as="geometry" />
        </mxCell>
        <mxCell id="8_FjwSeSAaLQE-lY-bs4-48" value="&lt;font style=&quot;font-size: 20px;&quot;&gt;SHOOTER&lt;br&gt;SUBSYSTEM&lt;/font&gt;" style="rounded=0;whiteSpace=wrap;html=1;fillColor=#d5e8d4;strokeColor=none;" vertex="1" parent="WIyWlLk6GJQsqaUBKTNV-1">
          <mxGeometry x="1014" y="400" width="120" height="60" as="geometry" />
        </mxCell>
        <mxCell id="8_FjwSeSAaLQE-lY-bs4-57" style="edgeStyle=orthogonalEdgeStyle;rounded=0;orthogonalLoop=1;jettySize=auto;html=1;exitX=0.5;exitY=1;exitDx=0;exitDy=0;entryX=0.5;entryY=0;entryDx=0;entryDy=0;" edge="1" parent="WIyWlLk6GJQsqaUBKTNV-1" source="8_FjwSeSAaLQE-lY-bs4-50" target="8_FjwSeSAaLQE-lY-bs4-53">
          <mxGeometry relative="1" as="geometry" />
        </mxCell>
        <mxCell id="8_FjwSeSAaLQE-lY-bs4-58" style="edgeStyle=orthogonalEdgeStyle;rounded=0;orthogonalLoop=1;jettySize=auto;html=1;exitX=1;exitY=0.5;exitDx=0;exitDy=0;entryX=0;entryY=0.5;entryDx=0;entryDy=0;" edge="1" parent="WIyWlLk6GJQsqaUBKTNV-1" source="8_FjwSeSAaLQE-lY-bs4-50" target="8_FjwSeSAaLQE-lY-bs4-54">
          <mxGeometry relative="1" as="geometry" />
        </mxCell>
        <mxCell id="8_FjwSeSAaLQE-lY-bs4-50" value="If P1 left bumper&lt;div&gt;==&lt;/div&gt;&lt;div&gt;true&lt;/div&gt;" style="shape=hexagon;perimeter=hexagonPerimeter2;whiteSpace=wrap;html=1;fixedSize=1;" vertex="1" parent="WIyWlLk6GJQsqaUBKTNV-1">
          <mxGeometry x="905.49" y="486" width="150" height="60" as="geometry" />
        </mxCell>
        <mxCell id="8_FjwSeSAaLQE-lY-bs4-56" style="edgeStyle=orthogonalEdgeStyle;rounded=0;orthogonalLoop=1;jettySize=auto;html=1;exitX=0;exitY=0.5;exitDx=0;exitDy=0;entryX=0;entryY=0.5;entryDx=0;entryDy=0;" edge="1" parent="WIyWlLk6GJQsqaUBKTNV-1" source="8_FjwSeSAaLQE-lY-bs4-53" target="8_FjwSeSAaLQE-lY-bs4-50">
          <mxGeometry relative="1" as="geometry" />
        </mxCell>
        <mxCell id="8_FjwSeSAaLQE-lY-bs4-59" style="edgeStyle=orthogonalEdgeStyle;rounded=0;orthogonalLoop=1;jettySize=auto;html=1;exitX=1;exitY=0.5;exitDx=0;exitDy=0;entryX=0.5;entryY=1;entryDx=0;entryDy=0;" edge="1" parent="WIyWlLk6GJQsqaUBKTNV-1" source="8_FjwSeSAaLQE-lY-bs4-53" target="8_FjwSeSAaLQE-lY-bs4-54">
          <mxGeometry relative="1" as="geometry" />
        </mxCell>
        <mxCell id="8_FjwSeSAaLQE-lY-bs4-53" value="Shooter set Power 100%&lt;div&gt;Ball Pusher set Power 100%&lt;br&gt;Shooter up set Servo to 0.5&lt;br&gt;&lt;br&gt;&lt;/div&gt;" style="rounded=0;whiteSpace=wrap;html=1;" vertex="1" parent="WIyWlLk6GJQsqaUBKTNV-1">
          <mxGeometry x="890.49" y="590" width="180" height="72" as="geometry" />
        </mxCell>
        <mxCell id="8_FjwSeSAaLQE-lY-bs4-54" value="Shooter set Power 0%&lt;div&gt;Ball Pusher set Power 0%&lt;br&gt;Shooter up set Servo to 0&lt;br&gt;&lt;br&gt;&lt;/div&gt;" style="rounded=0;whiteSpace=wrap;html=1;" vertex="1" parent="WIyWlLk6GJQsqaUBKTNV-1">
          <mxGeometry x="1097.49" y="480" width="180" height="72" as="geometry" />
        </mxCell>
      </root>
    </mxGraphModel>
  </diagram>
</mxfile>
